<?xml version="1.0" standalone="no"?><!DOCTYPE svg PUBLIC "-//W3C//DTD SVG 1.1//EN" "http://www.w3.org/Graphics/SVG/1.1/DTD/svg11.dtd"><svg t="1519454929341" class="icon" style="" viewBox="0 0 1024 1024" version="1.1" xmlns="http://www.w3.org/2000/svg" p-id="3043" xmlns:xlink="http://www.w3.org/1999/xlink" width="40" height="40"><defs><style type="text/css"></style></defs><path d="M959 512c0-246.854-200.131-447-446.985-447C265.161 65 65 265.16 65 512.015S265.146 959 512 959C758.854 959 959 758.854 959 512zM929.2 512.015C929.2 742.063 742.063 929.2 512 929.2c-230.033 0-417.2-187.152-417.2-417.186C94.8 281.952 281.952 94.8 512 94.814 742.048 94.8 929.2 281.952 929.2 512.015zM275.564 425.045 292.429 408.282 512.015 626.893 731.6 408.282 748.45 425.059 512 660.433Z" p-id="3044" fill="#77d9e0"></path></svg>